<svg width="100" height="45" viewBox="0 0 100 45" fill="none" xmlns="http://www.w3.org/2000/svg">
<path d="M0.391 45V0.199997H7.239L26.823 32.904H23.239L42.503 0.199997H49.351L49.415 45H41.543L41.479 12.552H43.143L26.759 39.88H23.047L6.407 12.552H8.327V45H0.391ZM63.308 45V0.199997H81.996C86.8173 0.199997 90.5933 1.18133 93.324 3.144C96.0547 5.10666 97.42 7.944 97.42 11.656C97.42 14.088 96.844 16.136 95.692 17.8C94.54 19.464 92.94 20.7227 90.892 21.576C88.8867 22.3867 86.6253 22.792 84.108 22.792L85.26 21.512C88.332 21.512 90.956 21.96 93.132 22.856C95.308 23.752 96.9507 25.0533 98.06 26.76C99.212 28.4667 99.788 30.6 99.788 33.16C99.788 36.9147 98.4227 39.8373 95.692 41.928C92.9613 43.976 88.8227 45 83.276 45H63.308ZM66.572 42.184H83.276C87.5853 42.184 90.8707 41.4587 93.132 40.008C95.3933 38.5147 96.524 36.1467 96.524 32.904C96.524 29.704 95.3933 27.3787 93.132 25.928C90.8707 24.4347 87.5853 23.688 83.276 23.688H66.188V20.872H81.868C85.7507 20.872 88.7587 20.1253 90.892 18.632C93.0253 17.1387 94.092 14.8987 94.092 11.912C94.092 8.968 93.0253 6.74933 90.892 5.256C88.7587 3.76266 85.7507 3.016 81.868 3.016H66.572V42.184Z" fill="black"/>
</svg>
