<svg width="474" height="47" viewBox="0 0 474 47" fill="none" xmlns="http://www.w3.org/2000/svg">
<path d="M0.35975 46V1.2H7.20775L26.7918 33.904H23.2078L42.4718 1.2H49.3198L49.3838 46H41.5118L41.4478 13.552H43.1118L26.7278 40.88H23.0158L6.37575 13.552H8.29575V46H0.35975ZM61.4848 46V1.2H69.8048V46H61.4848ZM81.9223 46V1.2H88.7703L116.866 35.696H113.474V1.2H121.73V46H114.882L86.7863 11.504H90.1783V46H81.9223ZM133.735 46V1.2H142.055V46H133.735ZM154.172 46V1.2H161.02L180.604 33.904H177.02L196.284 1.2H203.132L203.196 46H195.324L195.26 13.552H196.924L180.54 40.88H176.828L160.188 13.552H162.108V46H154.172ZM208.961 46L229.121 1.2H237.313L257.537 46H248.833L231.489 5.616H234.817L217.537 46H208.961ZM218.241 35.632L220.481 29.104H244.673L246.913 35.632H218.241ZM263.235 46V1.2H271.555V38.96H294.979V46H263.235ZM303.339 46V1.2H322.027C326.849 1.2 330.625 2.18133 333.355 4.144C336.086 6.10666 337.451 8.944 337.451 12.656C337.451 15.088 336.875 17.136 335.723 18.8C334.571 20.464 332.971 21.7227 330.923 22.576C328.918 23.3867 326.657 23.792 324.139 23.792L325.291 22.512C328.363 22.512 330.987 22.96 333.163 23.856C335.339 24.752 336.982 26.0533 338.091 27.76C339.243 29.4667 339.819 31.6 339.819 34.16C339.819 37.9147 338.454 40.8373 335.723 42.928C332.993 44.976 328.854 46 323.307 46H303.339ZM306.603 43.184H323.307C327.617 43.184 330.902 42.4587 333.163 41.008C335.425 39.5147 336.555 37.1467 336.555 33.904C336.555 30.704 335.425 28.3787 333.163 26.928C330.902 25.4347 327.617 24.688 323.307 24.688H306.219V21.872H321.899C325.782 21.872 328.79 21.1253 330.923 19.632C333.057 18.1387 334.123 15.8987 334.123 12.912C334.123 9.968 333.057 7.74933 330.923 6.256C328.79 4.76266 325.782 4.016 321.899 4.016H306.603V43.184ZM343.976 46L364.584 1.2H367.848L388.456 46H384.936L365.48 3.248H366.888L347.496 46H343.976ZM351.528 33.392L352.616 30.64H379.432L380.52 33.392H351.528ZM415.1 46.32C411.73 46.32 408.615 45.7653 405.756 44.656C402.898 43.504 400.402 41.904 398.268 39.856C396.178 37.808 394.556 35.4187 393.404 32.688C392.252 29.9147 391.676 26.8853 391.676 23.6C391.676 20.3147 392.252 17.3067 393.404 14.576C394.556 11.8027 396.199 9.392 398.332 7.344C400.466 5.296 402.94 3.71733 405.756 2.608C408.615 1.456 411.751 0.879997 415.164 0.879997C418.407 0.879997 421.415 1.392 424.188 2.416C426.962 3.44 429.33 4.976 431.292 7.024L429.244 9.2C427.282 7.28 425.127 5.91467 422.78 5.104C420.476 4.29333 417.959 3.888 415.228 3.888C412.327 3.888 409.639 4.37866 407.164 5.36C404.69 6.34133 402.535 7.728 400.7 9.52C398.866 11.312 397.436 13.4027 396.412 15.792C395.431 18.1813 394.94 20.784 394.94 23.6C394.94 26.416 395.431 29.0187 396.412 31.408C397.436 33.7973 398.866 35.888 400.7 37.68C402.535 39.472 404.69 40.8587 407.164 41.84C409.639 42.8213 412.327 43.312 415.228 43.312C417.874 43.312 420.37 42.9067 422.716 42.096C425.106 41.2853 427.282 39.9413 429.244 38.064L431.1 40.56C429.095 42.48 426.684 43.9307 423.868 44.912C421.095 45.8507 418.172 46.32 415.1 46.32ZM427.964 40.24V23.792H431.1V40.56L427.964 40.24ZM457.24 46.32C453.912 46.32 450.755 45.7653 447.768 44.656C444.824 43.504 442.542 42.032 440.92 40.24L442.392 37.808C443.928 39.3867 446.019 40.7307 448.664 41.84C451.352 42.9067 454.19 43.44 457.176 43.44C460.163 43.44 462.595 43.056 464.472 42.288C466.392 41.4773 467.8 40.4107 468.696 39.088C469.635 37.7653 470.104 36.2933 470.104 34.672C470.104 32.752 469.592 31.216 468.568 30.064C467.544 28.912 466.2 27.9947 464.536 27.312C462.872 26.6293 461.059 26.0533 459.096 25.584C457.134 25.1147 455.15 24.624 453.144 24.112C451.139 23.5573 449.304 22.8533 447.64 22C445.976 21.1467 444.632 19.9947 443.608 18.544C442.627 17.0507 442.136 15.1307 442.136 12.784C442.136 10.6507 442.691 8.688 443.8 6.896C444.91 5.104 446.638 3.65333 448.984 2.544C451.331 1.43466 454.339 0.879997 458.008 0.879997C460.483 0.879997 462.915 1.24266 465.304 1.968C467.736 2.69333 469.806 3.67467 471.512 4.912L470.296 7.536C468.419 6.256 466.392 5.31733 464.216 4.72C462.083 4.08 460.014 3.76 458.008 3.76C455.15 3.76 452.782 4.16533 450.904 4.976C449.027 5.78666 447.64 6.87466 446.744 8.24C445.848 9.56267 445.4 11.056 445.4 12.72C445.4 14.64 445.891 16.176 446.872 17.328C447.896 18.48 449.24 19.3973 450.904 20.08C452.568 20.7627 454.403 21.3387 456.408 21.808C458.414 22.2773 460.398 22.7893 462.36 23.344C464.323 23.856 466.136 24.5387 467.8 25.392C469.464 26.2453 470.808 27.3973 471.832 28.848C472.856 30.2987 473.368 32.176 473.368 34.48C473.368 36.5707 472.792 38.5333 471.64 40.368C470.488 42.16 468.718 43.6107 466.328 44.72C463.982 45.7867 460.952 46.32 457.24 46.32Z" fill="black"/>
</svg>
